<svg xmlns="http://www.w3.org/2000/svg" viewBox="0 0 31.78 31.78"><defs><style>.cls-1{fill:#fff;}</style></defs><g id="Layer_2" data-name="Layer 2"><g id="NFT_Tracker" data-name="NFT Tracker"><g id="Main_Sidebar" data-name="Main Sidebar"><g id="Logo"><path class="cls-1" d="M31.78,15.43a16.05,16.05,0,0,0-.19-2,15.11,15.11,0,0,0-1-3.56,14.92,14.92,0,0,0-.68-1.46,16.26,16.26,0,0,0-2.27-3.24l-.54-.56c-.18-.18-.35-.35-.53-.51A16,16,0,0,0,23.4,1.89a13,13,0,0,0-1.46-.69,15.33,15.33,0,0,0-3.84-1,14.44,14.44,0,0,0-2-.16h-.22A15.88,15.88,0,0,0,0,15.89v.22a16.2,16.2,0,0,0,.15,2,16.45,16.45,0,0,0,1,3.85,14.89,14.89,0,0,0,.7,1.45,16,16,0,0,0,2.25,3.19c.16.18.33.36.51.53s.37.36.57.54a15.85,15.85,0,0,0,3.22,2.27c.47.25,1,.48,1.46.69a15.31,15.31,0,0,0,3.57,1,15.86,15.86,0,0,0,2,.19h.46A15.9,15.9,0,0,0,31.78,15.89ZM1.56,16.7c0-.27,0-.54,0-.81a12.5,12.5,0,0,1,.07-1.38,14.35,14.35,0,0,1,12.9-12.9,12.5,12.5,0,0,1,1.38-.07l.8,0L11,7.24A2.88,2.88,0,0,0,5.64,8.67,2.78,2.78,0,0,0,6,10.1a2.75,2.75,0,0,0,1.07,1.07Zm8,12.08A14.37,14.37,0,0,1,6.3,26.57L5.73,26l6.82-6.82A4.59,4.59,0,0,1,11.22,16a4.53,4.53,0,0,1,1.2-3.09L3,22.26a13.4,13.4,0,0,1-.64-1.51L20.75,2.39A13.4,13.4,0,0,1,22.26,3l-9.53,9.53a4.62,4.62,0,0,1,6.34.14l7-7c.19.18.37.37.55.57a14.64,14.64,0,0,1,2.21,3.28Zm1.51.64L29.41,11.1a14,14,0,0,1,.79,3.77l-6.86,6.86a1.44,1.44,0,0,1,1.07,1.07,1.27,1.27,0,0,1,0,.34A1.46,1.46,0,0,1,23,24.6a1.33,1.33,0,0,1-.34-.05,1.46,1.46,0,0,1-1.07-1.07L14.87,30.2A14.2,14.2,0,0,1,11.1,29.42Z"/></g></g></g></g></svg>