<svg xmlns="http://www.w3.org/2000/svg" viewBox="0 0 25.5 20.85"><g id="Layer_2" data-name="Layer 2"><g id="Profile_copy" data-name="Profile copy"><g id="backer_graphics_copy_4" data-name="backer graphics copy 4"><g id="main_backer" data-name="main backer"><g id="light"><g id="highlight_color_copy_2" data-name="highlight color copy 2"><path d="M8.39,20.85H7.57a.41.41,0,0,0-.19,0l-.79,0c-.31,0-.61-.07-.92-.12a11.9,11.9,0,0,1-1.19-.23A14.77,14.77,0,0,1,.71,19L0,18.56s0,0,0,0H.25l.66,0a11.65,11.65,0,0,0,1.56-.08,9.6,9.6,0,0,0,1-.18,10.66,10.66,0,0,0,3.86-1.76l.27-.2s0,0,0-.05a5.49,5.49,0,0,1-1.27-.19,5.15,5.15,0,0,1-1.19-.49,5,5,0,0,1-1-.78A5,5,0,0,1,2.8,12.68l.58.06a5.61,5.61,0,0,0,.58,0,4,4,0,0,0,.6-.05c.47-.08.48-.09.56-.14s0,0-.07,0a5.19,5.19,0,0,1-2.52-1.36A5.28,5.28,0,0,1,1.06,8.56,5.1,5.1,0,0,1,1,7.79c0-.12,0-.24,0-.36a.43.43,0,0,1,0,0H1l.07,0A5,5,0,0,0,2,7.79,5.52,5.52,0,0,0,3,8l.28,0a0,0,0,0,0,0,0,.39.39,0,0,0-.1-.08A5.31,5.31,0,0,1,1.62,6.14a5.09,5.09,0,0,1-.62-2A5.36,5.36,0,0,1,1,3a4.72,4.72,0,0,1,.14-.75,5.09,5.09,0,0,1,.48-1.21s0-.06.06-.07l.06.07A15.38,15.38,0,0,0,3.68,3,15,15,0,0,0,9.41,6a14.12,14.12,0,0,0,2,.39c.28,0,.56.06.85.08h.23v0a.3.3,0,0,0,0-.1,6.35,6.35,0,0,1-.11-1.06,5.46,5.46,0,0,1,0-.57,4,4,0,0,1,.14-.77A5.26,5.26,0,0,1,17.4,0a.18.18,0,0,0,.1,0h.31l.09,0,.29,0A5,5,0,0,1,19,.18a5.2,5.2,0,0,1,2.45,1.4l.06.07.07,0h.06A10.07,10.07,0,0,0,24.14.78l.6-.31.06,0s0,0,0,0l0,.08A5.19,5.19,0,0,1,23,3a4.17,4.17,0,0,1-.37.26s-.05,0-.05.06a3.15,3.15,0,0,0,.43,0l.42-.08.43-.1L24.26,3l.42-.14.4-.14.42-.17a.45.45,0,0,1-.06.12A10.79,10.79,0,0,1,23,5.12l-.07,0a.08.08,0,0,0,0,.07v.13a5.81,5.81,0,0,1,0,.59q0,.41,0,.81c0,.2,0,.4,0,.6s-.07.56-.11.84c-.07.45-.17.89-.28,1.32A15.84,15.84,0,0,1,20.58,14a15.26,15.26,0,0,1-2.74,3.26,14,14,0,0,1-5.47,3,13.42,13.42,0,0,1-1.55.36c-.24.05-.49.08-.74.11l-.37.05-.63.05c-.19,0-.38,0-.57,0Z"/></g></g></g></g></g></g></svg>