<svg xmlns="http://www.w3.org/2000/svg" viewBox="0 0 23.15 23.15"><g id="Layer_2" data-name="Layer 2"><g id="Profile_copy" data-name="Profile copy"><g id="backer_graphics_copy_4" data-name="backer graphics copy 4"><g id="main_backer" data-name="main backer"><g id="light"><g id="highlight_color_copy_2" data-name="highlight color copy 2"><path d="M22.86,9A11.58,11.58,0,0,0,14.17.29h0A11.68,11.68,0,0,0,11.58,0c-.33,0-.66,0-1,0A10.13,10.13,0,0,0,9,.28,11.56,11.56,0,0,0,.29,9,11.33,11.33,0,0,0,0,11.57H0c0,.33,0,.65,0,1a12,12,0,0,0,.25,1.59A11.58,11.58,0,0,0,9,22.87a10.13,10.13,0,0,0,1.56.24c.32,0,.65,0,1,0h0a11.68,11.68,0,0,0,2.59-.29h0a11.57,11.57,0,0,0,8.69-8.72,10.53,10.53,0,0,0,.25-1.59c0-.32,0-.64,0-1h0A11.33,11.33,0,0,0,22.86,9ZM2.45,9.51A8.2,8.2,0,0,1,4.52,8.07a19,19,0,0,0-.28,2.53h-2A9.53,9.53,0,0,1,2.45,9.51Zm0,4.12a9.36,9.36,0,0,1-.18-1.08h2A20,20,0,0,0,4.5,15,8.47,8.47,0,0,1,2.45,13.63Zm1.41,3.22a11.22,11.22,0,0,0,1.25.5,11.91,11.91,0,0,0,.64,1.53A8.9,8.9,0,0,1,3.86,16.85ZM5.15,5.69a10.49,10.49,0,0,0-1.21.5A9.74,9.74,0,0,1,5.75,4.26,12.54,12.54,0,0,0,5.15,5.69ZM10.6,20.88a11,11,0,0,1-1.15-.19h0a9.13,9.13,0,0,1-2-2.73,21.65,21.65,0,0,0,3.13.33Zm0-4.55a18.72,18.72,0,0,1-3.93-.54,15.61,15.61,0,0,1-.48-3.24H10.6Zm0-5.73H6.19A15.75,15.75,0,0,1,6.7,7.25a16.73,16.73,0,0,1,3.9-.56Zm0-5.86a21,21,0,0,0-3.06.32A9.21,9.21,0,0,1,9.45,2.47h0a11.05,11.05,0,0,1,1.15-.2ZM20.7,9.51a9.53,9.53,0,0,1,.18,1.09h-2A19.47,19.47,0,0,0,18.58,8,8.41,8.41,0,0,1,20.7,9.51ZM12.55,2.27a11.36,11.36,0,0,1,1.19.21,9.15,9.15,0,0,1,1.87,2.58,21,21,0,0,0-3.06-.32Zm0,4.42a17,17,0,0,1,3.86.55h0a15.3,15.3,0,0,1,.49,3.36H12.55Zm1.2,14a7.92,7.92,0,0,1-1.2.21v-2.6A21.8,21.8,0,0,0,15.68,18,9.19,9.19,0,0,1,13.75,20.67Zm2.69-4.87a18.46,18.46,0,0,1-3.89.53V12.55H16.9A15.79,15.79,0,0,1,16.44,15.8Zm2.77-9.61A13.27,13.27,0,0,0,18,5.68a12.36,12.36,0,0,0-.58-1.42A9,9,0,0,1,19.21,6.19Zm-1.82,12.7A11.34,11.34,0,0,0,18,17.36c.46-.16.89-.33,1.28-.51A9.44,9.44,0,0,1,17.39,18.89Zm3.31-5.26A8.12,8.12,0,0,1,18.59,15a18.28,18.28,0,0,0,.27-2.48h2A9.36,9.36,0,0,1,20.7,13.63Z"/></g></g></g></g></g></g></svg>